<svg width="20" height="20" viewBox="0 0 20 20" fill="none" xmlns="http://www.w3.org/2000/svg">
    <path fill-rule="evenodd" clip-rule="evenodd"
        d="M9.8698 18.0521C6.79329 18.0521 4.16602 17.5733 4.16602 15.656C4.16602 13.7387 6.77662 11.9688 9.8698 11.9688C12.9463 11.9688 15.5736 13.7215 15.5736 15.6389C15.5736 17.5554 12.963 18.0521 9.8698 18.0521Z"
        fill="#51267D" stroke="#51267D" stroke-width="2" stroke-linecap="round"
        stroke-linejoin="round" />
    <path fill-rule="evenodd" clip-rule="evenodd"
        d="M9.86311 9.31136C11.8821 9.31136 13.5184 7.675 13.5184 5.65606C13.5184 3.63712 11.8821 2 9.86311 2C7.84417 2 6.20705 3.63712 6.20705 5.65606C6.20023 7.66818 7.82523 9.30455 9.83736 9.31136C9.84645 9.31136 9.85478 9.31136 9.86311 9.31136Z"
        fill="#51267D" stroke="#51267D" stroke-width="2" stroke-linecap="round"
        stroke-linejoin="round" />
</svg>
