<svg width="375" height="207" viewBox="0 0 375 207" fill="none" xmlns="http://www.w3.org/2000/svg">
<g clip-path="url(#clip0_9532_122736)">
<rect width="375" height="207" fill="#17BAD1"/>
<g opacity="0.8">
<path opacity="0.4" d="M235.235 -30.7283L133.481 71.0263C116.647 87.8602 116.647 115.153 133.481 131.987L235.235 233.742C252.069 250.576 279.362 250.576 296.196 233.742L397.951 131.987C414.785 115.153 414.785 87.8602 397.951 71.0263L296.196 -30.7283C279.362 -47.5622 252.069 -47.5622 235.235 -30.7283Z" fill="#FEFEFE" fill-opacity="0.25"/>
<path opacity="0.4" d="M306.369 -41.232L196.438 68.6984C178.252 86.8849 178.252 116.371 196.438 134.558L306.369 244.488C324.555 262.674 354.041 262.674 372.228 244.488L482.158 134.558C500.345 116.371 500.345 86.8849 482.158 68.6984L372.228 -41.232C354.041 -59.4185 324.555 -59.4185 306.369 -41.232Z" fill="#FEFEFE" fill-opacity="0.25"/>
<path opacity="0.4" d="M372.997 -40.7536L263.435 68.8086C245.309 86.9342 245.309 116.322 263.435 134.447L372.997 244.009C391.122 262.135 420.51 262.135 438.635 244.009L548.198 134.447C566.323 116.322 566.323 86.9342 548.198 68.8086L438.635 -40.7536C420.51 -58.8792 391.122 -58.8792 372.997 -40.7536Z" fill="#FEFEFE" fill-opacity="0.35"/>
</g>
</g>
<defs>
<clipPath id="clip0_9532_122736">
<rect width="375" height="207" fill="white"/>
</clipPath>
</defs>
</svg>
