<svg width="375" height="207" viewBox="0 0 375 207" fill="none" xmlns="http://www.w3.org/2000/svg">
<g clip-path="url(#clip0_9532_122628)">
<rect width="375" height="207" fill="#182632"/>
<g opacity="0.45">
<path d="M212.296 -175.067C221.787 -180.268 233.13 -180.864 243.114 -176.687L338.127 -136.933C348.111 -132.755 355.65 -124.259 358.609 -113.849L386.767 -14.7778C389.726 -4.36742 387.783 6.82376 381.489 15.6279L321.589 99.4127C315.295 108.217 305.334 113.676 294.526 114.244L191.673 119.651C180.866 120.219 170.387 115.835 163.205 107.739L94.8494 30.6971C87.6666 22.6016 84.5612 11.6758 86.4122 1.01256L104.027 -100.465C105.878 -111.128 112.484 -120.368 121.975 -125.569L212.296 -175.067Z" fill="url(#paint0_linear_9532_122628)" fill-opacity="0.15"/>
<path d="M494.663 47.8485C504.829 51.5605 512.752 59.6999 516.188 69.9625L548.89 167.628C552.326 177.89 550.902 189.159 545.021 198.245L489.053 284.705C483.172 293.791 473.473 299.703 462.703 300.77L360.21 310.92C349.44 311.986 338.77 308.09 331.222 300.335L259.383 226.53C251.834 218.775 248.227 208.004 249.584 197.267L262.496 95.0848C263.853 84.3475 270.025 74.8124 279.266 69.1786L367.206 15.5639C376.446 9.93004 387.749 8.81071 397.916 12.5227L494.663 47.8485Z" fill="url(#paint1_linear_9532_122628)" fill-opacity="0.19"/>
<path d="M291.019 -84.3023C300.51 -89.5035 311.853 -90.0998 321.837 -85.9225L416.85 -46.168C426.834 -41.9907 434.372 -33.4942 437.331 -23.0839L465.49 75.9869C468.449 86.3972 466.506 97.5884 460.212 106.393L400.312 190.177C394.017 198.981 384.056 204.44 373.249 205.008L270.396 210.416C259.588 210.984 249.11 206.6 241.927 198.504L173.572 121.462C166.389 113.366 163.284 102.44 165.135 91.7772L182.75 -9.70001C184.601 -20.3632 191.207 -29.6032 200.698 -34.8045L291.019 -84.3023Z" fill="url(#paint2_linear_9532_122628)" fill-opacity="0.17"/>
</g>
</g>
<defs>
<linearGradient id="paint0_linear_9532_122628" x1="227.315" y1="-183.298" x2="243.922" y2="132.589" gradientUnits="userSpaceOnUse">
<stop stop-color="#FBFBFB"/>
<stop offset="1" stop-color="#FBFBFB" stop-opacity="0"/>
</linearGradient>
<linearGradient id="paint1_linear_9532_122628" x1="510.75" y1="53.7226" x2="284.078" y2="274.358" gradientUnits="userSpaceOnUse">
<stop stop-color="#FBFBFB"/>
<stop offset="1" stop-color="#FBFBFB" stop-opacity="0"/>
</linearGradient>
<linearGradient id="paint2_linear_9532_122628" x1="306.038" y1="-92.5329" x2="322.645" y2="223.353" gradientUnits="userSpaceOnUse">
<stop stop-color="#FBFBFB"/>
<stop offset="1" stop-color="#FBFBFB" stop-opacity="0"/>
</linearGradient>
<clipPath id="clip0_9532_122628">
<rect width="375" height="207" fill="white"/>
</clipPath>
</defs>
</svg>
