<svg width="48" height="48" viewBox="0 0 48 48" fill="none" xmlns="http://www.w3.org/2000/svg">
    <circle cx="24" cy="24" r="24" fill="white" />
    <path
        d="M29.7208 15L28.3078 13.168C28.0263 12.8058 27.6661 12.5124 27.2545 12.3101C26.8428 12.1077 26.3905 12.0017 25.9318 12H22.0678C21.6091 12.0017 21.1568 12.1077 20.7451 12.3101C20.3335 12.5124 19.9733 12.8058 19.6918 13.168L18.2788 15H29.7208Z"
        fill="#2979FF" />
    <path
        d="M24 30C26.2091 30 28 28.2091 28 26C28 23.7909 26.2091 22 24 22C21.7909 22 20 23.7909 20 26C20 28.2091 21.7909 30 24 30Z"
        fill="#2979FF" />
    <path
        d="M31 17H17C15.6744 17.0016 14.4036 17.5289 13.4662 18.4662C12.5289 19.4036 12.0016 20.6744 12 22L12 31C12.0016 32.3256 12.5289 33.5964 13.4662 34.5338C14.4036 35.4711 15.6744 35.9984 17 36H31C32.3256 35.9984 33.5964 35.4711 34.5338 34.5338C35.4711 33.5964 35.9984 32.3256 36 31V22C35.9984 20.6744 35.4711 19.4036 34.5338 18.4662C33.5964 17.5289 32.3256 17.0016 31 17ZM24 32C22.8133 32 21.6533 31.6481 20.6666 30.9888C19.6799 30.3295 18.9108 29.3925 18.4567 28.2961C18.0026 27.1997 17.8838 25.9933 18.1153 24.8295C18.3468 23.6656 18.9182 22.5965 19.7574 21.7574C20.5965 20.9182 21.6656 20.3468 22.8295 20.1153C23.9933 19.8838 25.1997 20.0026 26.2961 20.4567C27.3925 20.9108 28.3295 21.6799 28.9888 22.6666C29.6481 23.6533 30 24.8133 30 26C29.9984 27.5908 29.3658 29.116 28.2409 30.2409C27.116 31.3658 25.5908 31.9984 24 32Z"
        fill="#2979FF" />
</svg>
