<svg width="375" height="207" viewBox="0 0 375 207" fill="none" xmlns="http://www.w3.org/2000/svg">
<g clip-path="url(#clip0_9532_122737)">
<rect width="375" height="207" fill="#445767"/>
<g opacity="0.2">
<path d="M245.861 -125.877C225.171 -135.86 200.416 -131.506 184.376 -115.062L147.564 -77.3245C131.523 -60.8803 127.784 -36.0253 138.278 -15.5898L205.685 115.682C210.996 126.023 219.533 134.352 230.004 139.404L362.908 203.532C383.598 213.515 408.352 209.161 424.393 192.717L461.205 154.98C477.246 138.535 480.985 113.68 470.491 93.2448L403.083 -38.0268C397.773 -48.3684 389.235 -56.6965 378.765 -61.7486L245.861 -125.877Z" fill="url(#paint0_linear_9532_122737)" fill-opacity="0.45"/>
<path d="M294.651 -185.541C273.961 -195.525 249.207 -191.17 233.166 -174.726L193.2 -133.756C177.159 -117.311 173.421 -92.4562 183.914 -72.0208L254.568 65.5719C259.878 75.9135 268.416 84.2417 278.886 89.2938L418.19 156.51C438.88 166.494 463.634 162.139 479.675 145.695L519.641 104.725C535.682 88.2804 539.421 63.4253 528.927 42.9898L458.273 -94.6029C452.963 -104.945 444.425 -113.273 433.955 -118.325L294.651 -185.541Z" fill="url(#paint1_linear_9532_122737)"/>
<path d="M338.897 -221.247C318.207 -231.231 293.453 -226.876 277.412 -210.432L240.6 -172.695C224.559 -156.25 220.82 -131.395 231.314 -110.96L298.722 20.3117C304.032 30.6533 312.57 38.9815 323.04 44.0335L455.944 108.162C476.634 118.145 501.388 113.791 517.429 97.3467L554.241 59.6094C570.282 43.1653 574.021 18.3102 563.527 -2.12526L496.119 -133.397C490.809 -143.738 482.271 -152.067 471.801 -157.119L338.897 -221.247Z" fill="url(#paint2_linear_9532_122737)"/>
</g>
</g>
<defs>
<linearGradient id="paint0_linear_9532_122737" x1="165.97" y1="-96.1932" x2="442.799" y2="173.848" gradientUnits="userSpaceOnUse">
<stop offset="0.0175187" stop-color="white" stop-opacity="0.71"/>
<stop offset="0.811699" stop-color="white" stop-opacity="0"/>
</linearGradient>
<linearGradient id="paint1_linear_9532_122737" x1="213.183" y1="-154.241" x2="499.658" y2="125.21" gradientUnits="userSpaceOnUse">
<stop offset="0.0175187" stop-color="white" stop-opacity="0.71"/>
<stop offset="0.811699" stop-color="white" stop-opacity="0"/>
</linearGradient>
<linearGradient id="paint2_linear_9532_122737" x1="389.368" y1="-273.457" x2="285.153" y2="122.293" gradientUnits="userSpaceOnUse">
<stop offset="0.0175187" stop-color="white" stop-opacity="0.71"/>
<stop offset="0.811699" stop-color="white" stop-opacity="0"/>
</linearGradient>
<clipPath id="clip0_9532_122737">
<rect width="375" height="207" fill="white"/>
</clipPath>
</defs>
</svg>
