<svg width="24" height="24" viewBox="0 0 24 24" fill="none" xmlns="http://www.w3.org/2000/svg">
    <path
        d="M9.40981 2.09961L14.9234 2.10129C16.8673 2.12167 17.849 2.32955 18.8666 2.87381C19.8383 3.39346 20.6062 4.1614 21.1259 5.13306C21.7004 6.20728 21.9001 7.24141 21.9001 9.40932V14.5899C21.9001 16.7578 21.7004 17.7919 21.1259 18.8662C20.6062 19.8378 19.8383 20.6058 18.8666 21.1254C17.7924 21.6999 16.7583 21.8996 14.5904 21.8996H9.40981C7.2419 21.8996 6.20776 21.6999 5.13354 21.1254C4.16189 20.6058 3.39395 19.8378 2.8743 18.8662C2.2998 17.7919 2.1001 16.7578 2.1001 14.5899L2.10178 9.07627C2.12216 7.13244 2.33004 6.15074 2.8743 5.13306C3.39395 4.1614 4.16189 3.39346 5.13354 2.87381C6.20776 2.29931 7.2419 2.09961 9.40981 2.09961ZM15.0896 13.2912L11.3617 17.8215C11.0462 18.2049 10.4798 18.2603 10.096 17.9454L8.05414 16.2705L5.24827 19.0261C5.46774 19.223 5.71273 19.3939 5.98242 19.5381C6.67835 19.9103 7.35475 20.066 8.84764 20.0946L9.40981 20.0996H14.5904L15.1526 20.0946C16.4698 20.0694 17.1514 19.9452 17.7716 19.6607L18.0178 19.5381C18.6757 19.1863 19.1867 18.6753 19.5386 18.0173C19.6384 17.8307 19.7227 17.6454 19.7931 17.4455L15.0896 13.2912ZM14.5904 3.89961H9.40981L8.84764 3.90459C7.53039 3.92987 6.8488 4.05402 6.22859 4.33856L5.98242 4.46107C5.32445 4.81296 4.81345 5.32396 4.46156 5.98193L4.33905 6.22811C4.01657 6.93101 3.9001 7.71275 3.9001 9.40932V14.5899L3.90508 15.1521C3.92681 16.2846 4.02163 16.9472 4.22862 17.505L7.36946 14.42C7.69744 14.0979 8.21547 14.0747 8.5709 14.3663L10.5428 15.9838L14.292 11.4277C14.6156 11.0344 15.201 10.9878 15.5827 11.3251L20.0915 15.3101C20.0929 15.2584 20.0941 15.2058 20.0951 15.1521L20.1001 14.5899V9.40932L20.0951 8.84716C20.0698 7.5299 19.9457 6.84832 19.6611 6.22811L19.5386 5.98193C19.1867 5.32396 18.6757 4.81296 18.0178 4.46107C17.3218 4.08889 16.6454 3.93324 15.1526 3.90459L14.5904 3.89961ZM8.5001 6.99961C9.32853 6.99961 10.0001 7.67118 10.0001 8.49961C10.0001 9.32804 9.32853 9.99961 8.5001 9.99961C7.67167 9.99961 7.0001 9.32804 7.0001 8.49961C7.0001 7.67118 7.67167 6.99961 8.5001 6.99961Z"
        fill="#2979FF" />
</svg>
