<svg width="14" height="19" viewBox="0 0 14 19" fill="none" xmlns="http://www.w3.org/2000/svg">
    <path fill-rule="evenodd" clip-rule="evenodd"
        d="M6.8698 17.0511C3.79329 17.0511 1.16602 16.5724 1.16602 14.655C1.16602 12.7377 3.77662 10.9678 6.8698 10.9678C9.94632 10.9678 12.5736 12.7206 12.5736 14.6379C12.5736 16.5544 9.96299 17.0511 6.8698 17.0511Z"
        stroke="#818C99" stroke-width="2" stroke-linecap="round" stroke-linejoin="round" />
    <path fill-rule="evenodd" clip-rule="evenodd"
        d="M6.86311 8.31136C8.88205 8.31136 10.5184 6.675 10.5184 4.65606C10.5184 2.63712 8.88205 1 6.86311 1C4.84417 1 3.20705 2.63712 3.20705 4.65606C3.20023 6.66818 4.82523 8.30455 6.83736 8.31136C6.84645 8.31136 6.85478 8.31136 6.86311 8.31136Z"
        stroke="#818C99" stroke-width="2" stroke-linecap="round" stroke-linejoin="round" />
</svg>
