<svg width="375" height="207" viewBox="0 0 375 207" fill="none" xmlns="http://www.w3.org/2000/svg">
<g clip-path="url(#clip0_9532_122739)">
<rect width="375" height="207" fill="#00BFA5"/>
<g opacity="0.6">
<path d="M437.1 -27.1295C437.717 -140.758 339.563 -279.994 225.934 -280.611C112.305 -281.228 4.87975 -143.11 4.26252 -29.4806C3.6586 81.7001 59.6505 36.9351 213.419 121.235C220.249 124.979 227.513 128.418 234.897 130.895C409.851 189.586 436.496 84.1709 437.1 -27.1295Z" fill="white" fill-opacity="0.15"/>
<path d="M452.505 35.6973C453.178 -88.2101 346.145 -240.04 222.238 -240.713C98.3303 -241.386 -18.8122 -90.774 -19.4853 33.1335C-20.1438 154.371 40.913 105.557 208.591 197.482C216.038 201.565 223.959 205.315 232.011 208.016C422.791 272.016 451.846 157.066 452.505 35.6973Z" fill="white" fill-opacity="0.15"/>
<path d="M448.748 -108.65C449.365 -222.279 351.21 -361.514 237.581 -362.131C123.952 -362.749 16.5272 -224.63 15.91 -111.001C15.3061 0.179638 71.298 -44.5854 225.067 39.7141C231.896 43.4582 239.16 46.8974 246.544 49.3745C421.498 108.065 448.143 2.6504 448.748 -108.65Z" fill="white" fill-opacity="0.15"/>
</g>
</g>
<defs>
<clipPath id="clip0_9532_122739">
<rect width="375" height="207" fill="white"/>
</clipPath>
</defs>
</svg>
